<?xml version="1.0" standalone="no"?><!DOCTYPE svg PUBLIC "-//W3C//DTD SVG 1.1//EN" "http://www.w3.org/Graphics/SVG/1.1/DTD/svg11.dtd"><svg t="1556897339762" class="icon" style="" viewBox="0 0 1024 1024" version="1.1" xmlns="http://www.w3.org/2000/svg" p-id="4660" xmlns:xlink="http://www.w3.org/1999/xlink" width="128" height="128"><defs><style type="text/css"></style></defs><path d="M783.502686 247.719072h-39.64169v-152.132756h39.731662c14.183595 0 25.680025 11.49643 25.680025 25.680025v100.682733c0 14.23358-11.538417 25.769997-25.769997 25.769998z" fill="#B3E59F" p-id="4661"></path><path d="M783.610652 451.151896h-39.749656v-152.132755h39.709669c14.193592 0 25.700019 11.506427 25.700019 25.700018v100.768707c0.001999 14.175598-11.488432 25.66403-25.660032 25.66403z" fill="#FF8086" p-id="4662"></path><path d="M782.826896 654.584721h-38.9659v-152.132756h41.253189c13.341857 0 24.158498 10.816641 24.158498 24.158498v101.53047c0 14.603465-11.840323 26.443788-26.445787 26.443788z" fill="#FFE07D" p-id="4663"></path><path d="M304.145549 999.94547l-60.963069-33.431618-64.895846 33.431618v-120.726509h125.858915z" fill="#E5646E" p-id="4664"></path><path d="M657.593786 885.43703H102.78608c-17.534555 0-31.748141-14.213586-31.748141-31.74814V26.997616c0-11.456442 9.287116-20.743558 20.743559-20.743558h565.812288c49.122745 0 88.944379 39.821634 88.944379 88.944378v701.292216c0.001999 49.122745-39.819634 88.946378-88.944379 88.946378z" fill="#C3DDFF" p-id="4665"></path><path d="M657.593786 6.254058h-79.975164c49.122745 0 88.944379 39.821634 88.944379 88.944378v701.292216c0 49.122745-39.821634 88.944379-88.944379 88.944379h79.975164c49.122745 0 88.944379-39.821634 88.944379-88.944379V95.200436c0.001999-49.124744-39.819634-88.946378-88.944379-88.946378z" fill="#A4CCFF" p-id="4666"></path><path d="M127.080536 183.157121H14.995343c-8.281428 0-14.995343-6.711916-14.995343-14.995343s6.713915-14.995343 14.995343-14.995343h112.085193c8.281428 0 14.995343 6.711916 14.995343 14.995343s-6.713915 14.995343-14.995343 14.995343zM127.080536 368.279632H14.995343c-8.281428 0-14.995343-6.711916-14.995343-14.995343s6.713915-14.995343 14.995343-14.995344h112.085193c8.281428 0 14.995343 6.711916 14.995343 14.995344s-6.713915 14.995343-14.995343 14.995343zM127.080536 553.402143H14.995343c-8.281428 0-14.995343-6.711916-14.995343-14.995344s6.713915-14.995343 14.995343-14.995343h112.085193c8.281428 0 14.995343 6.711916 14.995343 14.995343s-6.713915 14.995343-14.995343 14.995344zM127.080536 738.526653H14.995343c-8.281428 0-14.995343-6.711916-14.995343-14.995343s6.713915-14.995343 14.995343-14.995344h112.085193c8.281428 0 14.995343 6.711916 14.995343 14.995344s-6.713915 14.995343-14.995343 14.995343z" fill="#857E87" p-id="4667"></path><path d="M247.607106 166.346342h340.552243v196.357022H247.607106z" fill="#FFFFFF" p-id="4668"></path><path d="M508.184185 166.346342h79.975164v196.357022h-79.975164z" fill="#F0EEF0" p-id="4669"></path><path d="M959.248108 296.649876c17.664514 6.404011 26.79168 25.911953 20.389669 43.576468l-24.08652 66.445365c-6.404011 17.662515-25.911953 26.79168-43.576468 20.389668-17.662515-6.402012-26.79168-25.911953-20.389668-43.576467l24.08652-66.445366c6.402012-17.664514 25.911953-26.793679 43.576467-20.389668z" fill="#857E87" p-id="4670"></path><path d="M703.285597 1017.745942a14.955356 14.955356 0 0 1-5.108414-0.90172 14.991344 14.991344 0 0 1-8.987209-19.206035l24.406421-67.331091a14.991344 14.991344 0 0 1 19.206035-8.987209 14.991344 14.991344 0 0 1 8.98721 19.206036l-24.406421 67.33109a14.999342 14.999342 0 0 1-14.097622 9.888929z" fill="#FF8086" p-id="4671"></path><path d="M693.430657 862.184251c-10.760658 29.682782 4.580578 62.4706 34.26336 73.229259 29.682782 10.760658 62.4706-4.580578 73.229259-34.263359l142.217834-392.326165-107.494617-38.965899-142.215836 392.326164z" fill="#857E87" p-id="4672"></path><path d="M930.067171 377.144879c-29.682782-10.760658-62.4706 4.580578-73.231259 34.263359l-21.18742 58.451848 107.494618 38.9659 21.18942-58.449849c10.760658-29.684781-4.580578-62.4706-34.265359-73.231258z" fill="#FFE07D" p-id="4673"></path><path d="M949.837031 710.987205a14.955356 14.955356 0 0 1-5.108414-0.90172 14.991344 14.991344 0 0 1-8.987209-19.206035l54.077207-149.181673-159.280536-57.740069a14.991344 14.991344 0 0 1-8.987209-19.206035c2.823123-7.789581 11.43045-11.814331 19.206036-8.987209l173.380157 62.850482c7.647625 2.771139 11.778342 11.504427 8.987209 19.206035l-59.189619 163.279295a14.995343 14.995343 0 0 1-14.097622 9.886929z" fill="#FF8086" p-id="4674"></path></svg>