<?xml version="1.0" standalone="no"?><!DOCTYPE svg PUBLIC "-//W3C//DTD SVG 1.1//EN" "http://www.w3.org/Graphics/SVG/1.1/DTD/svg11.dtd"><svg t="1556897331840" class="icon" style="" viewBox="0 0 1024 1024" version="1.1" xmlns="http://www.w3.org/2000/svg" p-id="4508" xmlns:xlink="http://www.w3.org/1999/xlink" width="128" height="128"><defs><style type="text/css"></style></defs><path d="M886.066133 905.662896v22.571958c0 15.88301-12.872883 28.757888-28.755893 28.757889H166.955242c-14.839046 0-26.861588-12.032522-26.861589-26.869573V905.652916H32.934739v39.22746C32.934739 987.479258 67.461371 1022.005891 110.050273 1022.005891h806.05924c42.588902 0 77.115534-34.526633 77.115534-77.123519v-39.22746h-107.158914z m0 0" fill="#4F7693" p-id="4509"></path><path d="M772.258192 964.228624H257.037476c-24.757693 0-44.826536-20.070838-44.826536-44.83452v-10.020448c0-2.05 1.66076-3.712756 3.71076-3.712756h597.458256c2.044012 0 3.712756 1.662756 3.712756 3.712756v10.020448c0 24.763682-20.078823 44.832524-44.83452 44.832524z m0 0" fill="#FFAE85" p-id="4510"></path><path d="M813.379956 905.662896H215.9217c-2.05 0-3.712756 1.66076-3.712756 3.712756v10.018452c0 2.846446 0.289435 5.613048 0.796446 8.311782h522.628262c17.396057 0 30.706087 16.092601 26.745815 33.029554-0.34333 1.457157-0.75852 2.658812-1.247566 3.493184h11.126291c24.763682 0 44.832524-20.078823 44.832524-44.83452v-10.028433a3.712756 3.712756 0 0 0-3.71076-3.702775z m0 0" fill="#EA9E7D" p-id="4511"></path><path d="M140.093653 731.153394H69.36366l5.730818-42.051949 3.60297-26.408473 54.852972 3.359445 2.22965 22.214656z m0 0" fill="#FEDFC5" p-id="4512"></path><path d="M314.916544 851.548483l-71.789926 0.259493-97.817142-117.163394a68.354628 68.354628 0 0 0-75.945816-3.477215l-8.772883 5.301655a34.989729 34.989729 0 0 0-16.79523 27.360615L32.934739 905.662896h107.158914v-75.572545l72.117287 75.752195h143.280435v-3.329504c-0.005988-24.366457-16.833156-45.505212-40.574831-50.964559z m0 0" fill="#FF84A7" p-id="4513"></path><path d="M135.78007 688.267073a59.693528 59.693528 0 0 1-31.047421 8.669085c-10.798929 0-20.90521-2.836466-29.638171-7.834713l3.60297-26.408473 54.852972 3.359445z m0 0" fill="#FECBAA" p-id="4514"></path><path d="M169.54419 559.362587v57.082622c0 33.099417-26.823662 59.92308-59.899126 59.92308-23.945279 0-44.592991-14.028628-54.184278-34.33301a59.77936 59.77936 0 0 1-5.728822-25.59007v-57.082622c0-23.907353 19.382182-43.267578 43.265582-43.267577h33.301024c21.551948 0 39.393137 15.735298 42.682718 36.367042a41.978094 41.978094 0 0 1 0.560906 6.900535z m0 0" fill="#FEDFC5" p-id="4515"></path><path d="M168.981288 552.462052l-63.438221 25.114996a14.152386 14.152386 0 0 0-8.942551 13.154334v15.06261c0 4.630964-2.255599 8.942552-6.020254 11.587391l-35.119476 24.655892a59.77936 59.77936 0 0 1-5.728822-25.590069v-57.084619c0-23.907353 19.382182-43.267578 43.265582-43.267577h33.301024c21.551948 0 39.393137 15.735298 42.682718 36.367042z m0 0" fill="#C97F4C" p-id="4516"></path><path d="M956.796126 731.153394h-70.735982l3.313535-32.945717 3.227702-32.157256 54.852973-3.359445 4.195813 30.660177z m0 0" fill="#FEDFC5" p-id="4517"></path><path d="M993.225047 905.662896l-10.860808-141.833259a35.007694 35.007694 0 0 0-16.79523-27.360615l-8.772883-5.301655a68.354628 68.354628 0 0 0-75.945816 3.477215l-97.817142 117.161398-71.789926-0.257497c-23.74966 5.459348-40.576828 26.598103-40.576827 50.964559v3.321519h143.284427l72.115291-75.752194v75.572545h107.158914z m0 0" fill="#83D9FF" p-id="4518"></path><path d="M951.650167 693.351153a59.693528 59.693528 0 0 1-35.143429 11.383788c-9.768939 0-19.002922-2.339435-27.133059-6.527264l3.227702-32.157256 54.852973-3.359445z m0 0" fill="#FECBAA" p-id="4519"></path><path d="M976.429818 559.362587v57.082622c0 9.146154-2.065969 17.841189-5.730819 25.59007-9.591286 20.304383-30.244987 34.33301-54.192261 34.33301-33.075464 0-59.89713-26.831647-59.897131-59.92308v-57.082622c0-2.355404 0.193622-4.648929 0.56889-6.900535 3.289581-20.631744 21.13077-36.369038 42.682719-36.369038h33.324977c23.873419 0 43.243624 19.370205 43.243625 43.269573z m0 0" fill="#FEDFC5" p-id="4520"></path><path d="M976.429818 559.362587v57.082622c0 9.146154-2.065969 17.841189-5.730819 25.59007l-35.119475-24.645912a14.154382 14.154382 0 0 1-6.028238-11.595375v-15.064607a14.146398 14.146398 0 0 0-8.934567-13.154333l-63.446206-25.107012c3.297566-20.631744 21.138755-36.365046 42.682719-36.365046H933.178209c23.883399-0.007984 43.251609 19.360225 43.251609 43.259593z m0 0" fill="#C97F4C" p-id="4521"></path><path d="M449.168595 156.694263v242.379076c0 7.02629-2.541042 13.441773-6.750828 18.424052a28.45448 28.45448 0 0 1-21.801462 10.128238H197.471699c-4.980283 0-9.503457 2.91631-11.483594 7.463437-7.688997 17.715434-25.342552 30.097275-45.894452 30.097275-20.545911 0-38.199466-12.381841-45.910421-30.097275-1.982133-4.547128-6.503311-7.463438-11.463632-7.463437H78.28625c-15.77522 0-28.554286-12.795035-28.554286-28.55229V156.694263c0-15.773224 12.779066-28.554286 28.554286-28.554286h342.332051c15.781208 0 28.55229 12.781062 28.55229 28.554286z m0 0M977.052602 156.694263v242.379076c0 15.757255-12.779066 28.55229-28.552289 28.55229h-4.437342c-4.96631 0-9.489484 2.91631-11.461636 7.463437-7.710955 17.715434-25.364509 30.097275-45.918406 30.097275-20.521958 0-38.175513-12.381841-45.886467-30.097275-1.980136-4.547128-6.503311-7.463438-11.461637-7.463437H606.168262c-11.587391 0-21.575902-6.914509-26.05117-16.833156a28.504383 28.504383 0 0 1-2.503116-11.719134V156.694263c0-15.773224 12.773078-28.554286 28.554286-28.554286h342.332051c15.773224 0 28.55229 12.781062 28.552289 28.554286z m0 0" fill="#A7C7D3" p-id="4522"></path><path d="M722.776738 0H293.520291c-19.781403 0-35.81412 16.030721-35.81412 35.812124v294.32572c0 19.773419 16.032717 35.812124 35.81412 35.812125h142.689589c6.22186 0 11.898783 3.64888 14.38593 9.357741 9.653165 22.206671 31.789972 37.738366 57.559691 37.738366 25.761734 0 47.898542-15.525707 57.559691-37.738366 2.479163-5.708861 8.156086-9.357741 14.377947-9.357741h142.681603c19.781403 0 35.822105-16.030721 35.822105-35.812125V35.810128C758.598843 16.030721 742.558141 0 722.776738 0z m0 0" fill="#E9EDF1" p-id="4523"></path><path d="M449.168595 156.694263v242.379076c0 7.02629-2.541042 13.441773-6.750828 18.424052a93.645282 93.645282 0 0 1-15.735298-20.28043H293.52628c-36.997811 0-67.089098-30.089291-67.089098-67.079117V128.139977h194.177127c15.781208 0 28.55229 12.781062 28.55229 28.554286z m0 0M789.857852 128.139977v201.997867c0 36.98783-30.099271 67.079117-67.089098 67.079117h-133.13024a93.27201 93.27201 0 0 1-9.521422 13.573516 28.504383 28.504383 0 0 1-2.503116-11.717138V156.694263c0-15.773224 12.773078-28.554286 28.554286-28.554286z m0 0" fill="#89B4C9" p-id="4524"></path><path d="M722.776738 0H293.520291c-19.781403 0-35.81412 16.030721-35.81412 35.812124v294.32572c0 19.773419 16.032717 35.812124 35.81412 35.812125h142.689589c6.22186 0 11.898783 3.64888 14.38593 9.357741 9.653165 22.206671 31.789972 37.738366 57.559691 37.738366 25.761734 0 47.898542-15.525707 57.559691-37.738366 2.479163-5.708861 8.156086-9.357741 14.377947-9.357741h142.681603c19.781403 0 35.822105-16.030721 35.822105-35.812125V35.810128C758.598843 16.030721 742.558141 0 722.776738 0z m0 0" fill="#E9EDF1" p-id="4525"></path><path d="M670.666415 103.54796H337.254958a15.627508 15.627508 0 0 1-15.633497-15.633496 15.625512 15.625512 0 0 1 15.633497-15.625512h333.411457a15.629504 15.629504 0 1 1 0 31.259008z m0 0M670.666415 182.791343H337.254958a15.627508 15.627508 0 0 1-15.633497-15.633497 15.625512 15.625512 0 0 1 15.633497-15.625512h333.411457a15.629504 15.629504 0 1 1 0 31.259009z m0 0M517.177897 262.034725h-179.922939a15.625512 15.625512 0 0 1-15.633497-15.625512 15.627508 15.627508 0 0 1 15.633497-15.633496h179.922939a15.627508 15.627508 0 0 1 15.633496 15.633496 15.625512 15.625512 0 0 1-15.633496 15.625512z m0 0" fill="#A7C7D3" p-id="4526"></path><path d="M448.42804 744.641077a43.762612 43.762612 0 0 0 15.797177-9.381694 43.898347 43.898347 0 0 0 13.942795-32.069427v-40.437101h72.957647v40.437101a43.702728 43.702728 0 0 0 12.134324 30.260955 43.115874 43.115874 0 0 0 17.613633 11.190166z m0 0" fill="#FEDFC5" p-id="4527"></path><path d="M551.133644 662.752855v25.965337l-16.607596 10.128238a38.159544 38.159544 0 0 1-39.75044 0l-16.607596-10.128238v-25.965337z m0 0" fill="#FECBAA" p-id="4528"></path><path d="M585.935739 534.519061v88.555214a38.30526 38.30526 0 0 1-18.340215 32.700196l-33.075465 20.148687a38.179505 38.179505 0 0 1-39.742455 0L461.698148 655.774471a38.271326 38.271326 0 0 1-18.340216-32.700196V534.517065c0-24.366457 19.72152-44.10195 44.016117-44.101949h54.519623c24.326535 0 44.038074 19.735493 44.038074 44.101949z m0 0" fill="#FEDFC5" p-id="4529"></path><path d="M541.895668 490.419108h-33.356915c24.31855 0 44.038074 19.733497 44.038075 44.099953v88.555214a38.313244 38.313244 0 0 1-18.346204 32.700196l-33.069476 20.148687c-1.043963 0.638754-2.111879 1.193671-3.195764 1.722639a38.165532 38.165532 0 0 0 36.552679-1.722639l33.075464-20.148687a38.325221 38.325221 0 0 0 18.340216-32.700196V534.517065c0-24.366457-19.711539-44.10195-44.038075-44.101949z m0 0" fill="#FECBAA" p-id="4530"></path><path d="M585.935739 534.519061v41.13973l-94.551514-30.44859-48.024296 25.06709v-35.75823c0-24.366457 19.72152-44.10195 44.016117-44.101949h54.519622c24.326535 0 44.038074 19.735493 44.038075 44.101949z m0 0" fill="#618AAA" p-id="4531"></path><path d="M541.801851 490.419108h-33.356914c24.31855 0 44.03009 19.733497 44.030089 44.099953v30.394695l33.3649 10.745035v-41.13973c0-24.366457-19.719524-44.10195-44.038075-44.101949z m0 0" fill="#4F7693" p-id="4532"></path><path d="M365.879107 905.67088v-74.145329c0-35.305114 22.502095-66.665923 55.930869-77.925953l26.618064-8.958521a43.570986 43.570986 0 0 0 15.789192-9.387683 137.64543 137.64543 0 0 0 50.138172 8.27186c18.72746-0.405209 35.103507-4.513194 48.896595-10.074343a43.379359 43.379359 0 0 0 17.621617 11.190166l26.620059 8.958521c33.402825 11.258034 55.920889 42.620839 55.920889 77.927949v74.143333z m0 0" fill="#69D998" p-id="4533"></path><path d="M512.918208 743.768779l-31.304918 110.658087a8.645132 8.645132 0 0 0 1.888315 8.132133l23.298541 25.973322a8.655112 8.655112 0 0 0 12.583447 0.319377l25.919427-26.144987a8.653116 8.653116 0 0 0 2.119864-8.669085z m0 0" fill="#3DC5A1" p-id="4534"></path></svg>